<svg viewBox="0 0 64 64" fill="none" xmlns="http://www.w3.org/2000/svg">
  <path d="M8 4h48c2.2 0 4 1.8 4 4v48c0 2.2-1.8 4-4 4H8c-2.2 0-4-1.8-4-4V8c0-2.2 1.8-4 4-4z" fill="#0046BE"/>
  <path d="M14 22h10.5c4.1 0 6.5 2.1 6.5 5.2 0 2.2-1.2 3.8-3.1 4.5 2.4.6 3.9 2.5 3.9 5 0 3.5-2.6 5.8-7 5.8H14V22zm10 8.2c1.6 0 2.6-.9 2.6-2.2s-1-2.2-2.6-2.2h-5.5v4.4H24zm.5 9.2c1.8 0 2.9-1 2.9-2.4s-1.1-2.4-2.9-2.4h-6v4.8h6zM34 22h10.5c4.1 0 6.5 2.1 6.5 5.2 0 2.2-1.2 3.8-3.1 4.5 2.4.6 3.9 2.5 3.9 5 0 3.5-2.6 5.8-7 5.8H34V22zm10 8.2c1.6 0 2.6-.9 2.6-2.2s-1-2.2-2.6-2.2h-5.5v4.4H44zm.5 9.2c1.8 0 2.9-1 2.9-2.4s-1.1-2.4-2.9-2.4h-6v4.8h6z" fill="#FFF200"/>
</svg>
